<?xml version="1.0" encoding="UTF-8"?><!-- Generator: Adobe Illustrator 22.1.0, SVG Export Plug-In . SVG Version:
6.00 Build 0) --><svg xmlns="http://www.w3.org/2000/svg" xmlns:xlink="http://www.w3.org/1999/xlink" contentScriptType="text/ecmascript" zoomAndPan="magnify" contentStyleType="text/css" id="Lag_1" style="enable-background:new 0 0 1190.6 841.9;" version="1.1" width="142.0px" xml:space="preserve" preserveAspectRatio="none" viewBox="0.0 0.0 1195.238441645676 841.9" height="100.0px" x="0px" y="0px">
    <style type="text/css" xml:space="preserve">
	.st0{fill:#FFFFFF;}
	.st1{fill:#3DAE2B;}
</style>
    <path class="st0" d="M494.4,405.1c-0.6-0.7-0.6-2.5,0-3.2l55.3-72.4c2.4-2.9,1.7-5.3,1.2-6.2c-0.4-0.9-1.8-3.1-5.5-3.1h-41.5  c-3.6,0-8.1,2.2-10.3,5.1c0,0-33,43-42.9,56l0-53c0-4.5-3.7-8.2-8.1-8.2h-32.7c-4.5,0-8.2,3.7-8.2,8.2v153.3c0,4.5,3.7,8.2,8.2,8.2  h32.7c4.5,0,8.1-3.7,8.1-8.2v-56.3C461,438.8,496,485,496,485c2.2,2.9,7.1,4.9,10.8,4.9h40.9c3.7,0,5.1-2.1,5.6-3.1  c0.4-0.9,1.2-3.4-1.2-6.2L494.4,405.1z"/>
    <rect x="170.5" width="168.7" y="320.2" height="169.7" class="st1"/>
    <path class="st0" d="M841.3,320.2h-52.3c-4.5,0-8.2,3.7-8.2,8.2v26.4c0,4.5,3.7,8.2,8.2,8.2h44.5c26.4,0,42.8,16.1,42.8,42.1  c0,26.4-16.1,42.1-43.2,42.1l-63.4,0c-0.9,0-1.9-0.9-2-1.8l-19.6-117.6c-0.6-4.3-4.5-7.6-8.8-7.6l-32,0.1c-4,0-8.2,2.7-9.7,6.4  c0,0-24,59.4-30.2,74.9c-5.9-15.6-30.1-74.7-30.1-74.7c-1.4-3.8-5.5-6.7-9.6-6.6l-29.6,0.1c-4.3-0.2-8.5,3.2-9.4,7.6l-25.9,153.5  c-0.1,2,0.4,4.2,1.8,5.9c1.4,1.7,3.5,2.6,5.7,2.6h32.5c4.3,0,8.3-4.2,8.9-8.4c0,0,8.1-55.9,11-76.3c7.9,20,31.5,78.1,31.5,78.1  c1.5,3.8,5.6,6.6,9.7,6.6h7.3c4,0,8.2-2.8,9.7-6.5c0,0,23.6-58.2,31.9-78.2c2.6,20.5,9.7,77,9.7,77c0.5,4.3,4.4,7.7,8.7,7.7h110.2  c47.3,0,85.7-38.1,85.7-84.9C927,358.3,888.6,320.2,841.3,320.2"/>
    <g>
        <path class="st0" d="M592.5,564.1h-2.9c-0.4,0-0.7-0.3-0.8-0.7l-3.2-11.2h-12.7l-3.1,11.2c-0.1,0.4-0.5,0.7-0.9,0.7H566   c-0.5,0-0.8-0.3-0.8-0.8c0-0.1,0-0.2,0-0.3l9-31.8c0.8-3,3.1-3.7,5-3.7c1.8,0,4.1,0.7,4.9,3.7l9,31.9c0,0.1,0,0.2,0,0.3   C593.3,563.7,593,564.1,592.5,564.1z M580.2,532.1c-0.1-0.5-0.4-0.9-0.9-0.9c-0.5,0-0.8,0.3-1,0.9l-4.5,16.1h10.8L580.2,532.1z"/>
        <path class="st0" d="M617.7,564.1h-2.3c-0.5,0-1-0.4-1-1V547c0-4.9-1.7-6.5-5.4-6.5c-2.1,0-4.4,0.8-6.6,1.9v20.6c0,0.5-0.4,1-1,1   H599c-0.5,0-0.9-0.4-0.9-1v-24.9c0-0.5,0.4-1,0.9-1h2.4c0.5,0,0.9,0.4,0.9,1v0.9c2.7-1.5,4.9-2.2,7.8-2.2c5.9,0,8.5,3.7,8.5,10.2   v16.1C618.7,563.6,618.2,564.1,617.7,564.1z"/>
        <path class="st0" d="M662.1,564.1h-3c-0.8,0-1.3-0.3-1.6-0.8l-15.1-28.7c0-0.1-0.1-0.1-0.1-0.1c0,0,0,0,0,0.1v28.6   c0,0.5-0.4,0.9-0.9,0.9h-2.5c-0.5,0-0.9-0.1-0.9-0.6v-34.4c0-0.8,0.6-1.4,1.4-1.4h2.7c1.4,0,1.6,0.2,2,1l15,28.6l0.1,0.1   c0,0,0-0.1,0-0.1v-28.6c0-0.5,0.4-0.9,0.9-0.9h2.6c0.5,0,0.9,0.4,0.9,0.9v34C663.5,563.4,662.9,564.1,662.1,564.1z"/>
        <path class="st0" d="M691.1,564.2c-1.9,0.2-6.7,0.2-9.5,0.2c-6.8,0-10.4-2.6-10.4-9.1v-18.8c0-6.5,3.6-9.1,10.4-9.1   c2.9,0,7.5,0.1,9.5,0.3c0.3,0.1,0.5,0.4,0.5,0.7v2.4c0,0.3-0.2,0.6-0.5,0.6h-9.4c-5.2,0-6,1.4-6,5.1v6.8h15c0.5,0,1,0.4,1,1v1.9   c0,0.5-0.4,1-1,1h-15v8.2c0,3.7,0.8,5.1,6,5.1h9.4c0.3,0,0.5,0.2,0.5,0.6v2.5C691.6,563.8,691.4,564.1,691.1,564.2z"/>
        <path class="st0" d="M718.2,563.8c-2.1,0.4-4,0.6-8.1,0.6c-6,0-12.9-3.2-12.9-15.1v-6.8c0-12,6.9-15.1,12.9-15.1   c3.1,0,6.1,0.4,8.2,0.8c0.4,0,0.8,0.2,0.8,0.6v2.5c0,0.3-0.1,0.5-0.6,0.5c-0.1,0-0.1,0-0.1,0c-1.8-0.1-5.4-0.4-8.2-0.4   c-4.8,0-8.5,2.8-8.5,11.1v6.8c0,8.2,3.7,11.1,8.5,11.1c2.8,0,6.3-0.2,8.1-0.4c0,0,0.1,0,0.2,0c0.5,0,0.8,0.2,0.8,0.8v2   C719.2,563.4,718.8,563.7,718.2,563.8z"/>
        <path class="st0" d="M757,563.8c-2.1,0.4-4,0.6-8.1,0.6c-6,0-12.9-3.2-12.9-15.1v-6.8c0-12,6.9-15.1,12.9-15.1   c3.1,0,6.1,0.4,8.2,0.8c0.4,0,0.8,0.2,0.8,0.6v2.5c0,0.3-0.1,0.5-0.6,0.5c-0.1,0-0.1,0-0.1,0c-1.8-0.1-5.4-0.4-8.2-0.4   c-4.8,0-8.5,2.8-8.5,11.1v6.8c0,8.2,3.7,11.1,8.5,11.1c2.8,0,6.3-0.2,8.1-0.4c0,0,0.1,0,0.2,0c0.5,0,0.8,0.2,0.8,0.8v2   C757.9,563.4,757.5,563.7,757,563.8z"/>
        <path class="st0" d="M772.5,564.4c-7.2,0-10.9-4.7-10.9-11.9v-3.7c0-7.2,3.7-11.9,10.9-11.9c7.2,0,10.9,4.7,10.9,11.9v3.7   C783.4,559.7,779.6,564.4,772.5,564.4z M779.1,548.8c0-5-2-8.2-6.6-8.2c-4.5,0-6.6,3.1-6.6,8.2v3.7c0,5,2,8.2,6.6,8.2   c4.6,0,6.6-3.1,6.6-8.2V548.8z"/>
        <path class="st0" d="M820.5,564.1h-2.3c-0.5,0-1-0.4-1-1v-17.3c0-4.1-1.9-5.2-4.5-5.2c-1.8,0-3.8,0.6-5.7,1.3   c0.3,1.1,0.4,2.3,0.4,3.8v17.4c0,0.5-0.3,1-0.9,1H804c-0.5,0-0.8-0.4-0.8-1v-17.4c0-4.3-1.2-5.1-3.8-5.1c-1.8,0-3.9,0.9-6,1.9v20.6   c0,0.5-0.3,1-0.9,1H790c-0.5,0-0.8-0.4-0.8-1v-24.9c0-0.5,0.4-1,0.9-1h2.4c0.5,0,0.9,0.4,0.9,1v0.9c2-1.2,4.5-2.3,7.1-2.3   c2.1,0,3.7,0.6,4.9,2c2.7-1.3,5.6-2,8.1-2c4.4,0,7.9,2.2,7.9,9v17.3C821.5,563.6,821.1,564.1,820.5,564.1z"/>
        <path class="st0" d="M838.2,564.4c-1.5,0-3.8-0.2-5.7-0.5v8.9c0,0.5-0.4,0.9-0.9,0.9H829c-0.5,0-0.9-0.4-0.9-0.9v-33.7   c0-0.6,0.1-0.9,1-1.1c2.6-0.6,6-1.1,9-1.1c7.3,0,10.7,4.7,10.7,12.1v3.5C848.8,560.1,845.3,564.4,838.2,564.4z M844.5,548.9   c0-5.1-1.5-8.5-6.4-8.5c-2.1,0-4.4,0.2-5.7,0.5v19.4c1.6,0.3,4.2,0.5,5.7,0.5c4.8,0,6.4-3.1,6.4-8.4V548.9z"/>
        <path class="st0" d="M872.4,564.1h-2.2c-0.5,0-1-0.4-1-1V562c-2.3,1.4-4.8,2.4-7.5,2.4c-4.2,0-8-1.8-8-7.9v-0.6   c0-5.3,3.1-7.9,11.8-7.9h3.6v-2c0-4.1-1.4-5.5-5.2-5.5c-3.2,0-5.5,0.2-7.5,0.4c-0.1,0-0.1,0-0.2,0c-0.4,0-0.9-0.1-0.9-0.8v-1.7   c0-0.5,0.3-0.8,1-0.9c2-0.3,4.3-0.6,7.6-0.6c6.8,0,9.5,3.4,9.5,9.2v17.1C873.3,563.6,872.9,564.1,872.4,564.1z M869,551.1h-3.6   c-5.9,0-7.5,1.3-7.5,4.8v0.6c0,3.5,1.7,4.5,4.5,4.5c2.2,0,4.3-0.7,6.6-2V551.1z"/>
        <path class="st0" d="M899.6,564.1h-2.3c-0.5,0-1-0.4-1-1V547c0-4.9-1.7-6.5-5.4-6.5c-2.1,0-4.4,0.8-6.6,1.9v20.6c0,0.5-0.4,1-1,1   h-2.4c-0.5,0-0.9-0.4-0.9-1v-24.9c0-0.5,0.4-1,0.9-1h2.4c0.5,0,0.9,0.4,0.9,1v0.9c2.7-1.5,4.9-2.2,7.8-2.2c5.9,0,8.5,3.7,8.5,10.2   v16.1C900.6,563.6,900.1,564.1,899.6,564.1z"/>
        <path class="st0" d="M927,538.3l-8.1,28.2c-1.5,5.3-3.3,7.2-8.9,7.2c-1.4,0-3.1-0.2-4.1-0.4c-0.6-0.1-1-0.3-1-0.8v-1.8   c0-0.5,0.4-0.8,0.9-0.8c0,0,0.1,0,0.1,0c1.1,0.1,3.3,0.3,4.4,0.3c2.8,0,4-0.7,4.8-4.2l0.5-2h-0.7c-1.5,0-2.7-0.3-3.6-3.4l-6.5-22.4   c-0.1-0.1-0.1-0.2-0.1-0.3c0-0.5,0.3-0.8,0.9-0.8h2.7c0.4,0,0.7,0.4,0.8,0.8l5.8,21.2c0.2,1,0.6,1.1,0.9,1.1h0.8l6-22.4   c0.1-0.4,0.5-0.7,0.9-0.7h2.7c0.5,0,0.8,0.3,0.8,0.8C927,538.1,927,538.2,927,538.3z"/></g></svg>